<svg xmlns="http://www.w3.org/2000/svg" viewBox="0 0 24 24"><path d="M20.95 12.5h-2.3a.462.462 0 0 1-.475-.473.464.464 0 0 1 .475-.477h2.3a.46.46 0 0 1 .475.473.464.464 0 0 1-.475.477Zm-3.975 4.238a.478.478 0 0 1 .337-.188.458.458 0 0 1 .363.1l1.8 1.35c.1.083.162.192.188.325a.405.405 0 0 1-.088.35.6.6 0 0 1-.325.2.376.376 0 0 1-.35-.075l-1.825-1.35a.546.546 0 0 1-.188-.337.458.458 0 0 1 .088-.375ZM19.375 6l-1.8 1.35a.424.424 0 0 1-.363.088.546.546 0 0 1-.337-.188.395.395 0 0 1-.075-.362.605.605 0 0 1 .2-.338l1.8-1.35a.375.375 0 0 1 .35-.075.6.6 0 0 1 .325.2c.083.1.112.217.087.35a.538.538 0 0 1-.187.325Zm-14.35 8.2h-.8a1.59 1.59 0 0 1-1.168-.481 1.591 1.591 0 0 1-.482-1.169v-1c0-.458.16-.847.482-1.168.32-.322.71-.482 1.168-.482h3.15l2.35-1.35c.35-.217.704-.23 1.063-.038.358.192.537.496.537.913v5.25c0 .417-.18.72-.537.912-.359.192-.713.18-1.063-.037l-2.35-1.35h-1.4v3.375a.462.462 0 0 1-.473.475.464.464 0 0 1-.477-.475V14.2Zm5.35.65v-5.6l-2.75 1.6h-3.3c-.2 0-.383.083-.55.25-.167.167-.25.35-.25.55v.8c0 .2.083.383.25.55.167.167.35.25.55.25h3.3l2.75 1.6Zm3.95.1v-5.8c.333.317.6.727.8 1.231.2.505.3 1.06.3 1.669 0 .608-.1 1.164-.3 1.669-.2.504-.467.914-.8 1.231Z"/></svg>